<svg xmlns="http://www.w3.org/2000/svg" viewBox="0 0 512 512" width="512" height="512">
  <defs>
    <linearGradient id="teal-grad" x1="0%" y1="0%" x2="100%" y2="100%">
      <stop offset="0%" stop-color="#99f6e4" />
      <stop offset="100%" stop-color="#0d9488" />
    </linearGradient>
  </defs>
  <!-- Background squircle filled with dark theme background -->
  <rect width="512" height="512" fill="#0d1117" rx="112" />
  <!-- Scaled down logo icon group (scale 0.5 * 0.8 = 0.4) -->
  <g transform="translate(51.2, 51.2) scale(0.4)">
    <path d="M 481 105.063 C 379.026 113.989, 288.706 157.263, 217.200 231.454 C 135.479 316.244, 93.534 435.343, 105.011 550 C 111.014 609.969, 131.136 670.175, 162.692 722.586 C 183.361 756.914, 214.689 793.872, 246.500 821.454 C 312.975 879.091, 402.850 916.132, 487.250 920.675 L 499 921.307 499 869.409 L 499 817.510 461.810 780.310 L 424.621 743.111 418.469 743.685 C 410.966 744.386, 406.431 743.028, 402.087 738.780 C 395.423 732.266, 393.092 722.493, 396.347 714.718 C 397.722 711.434, 405.152 704, 407.060 704 C 407.780 704, 408.050 694.339, 407.911 673.500 L 407.708 643 401.854 643 L 396 643 396 624.059 C 396 613.641, 396.337 604.979, 396.750 604.809 C 397.163 604.639, 405.938 604.632, 416.250 604.793 L 435 605.085 435 618.299 L 435 631.512 467.065 663.506 L 499.130 695.500 498.682 662.500 C 498.203 627.223, 497.825 623.981, 492.441 608.994 C 486.236 591.722, 477.710 578.657, 463.093 564.024 C 454.362 555.282, 452.691 554.082, 444.500 550.658 C 433.579 546.093, 415.683 535.984, 403.500 527.499 C 367.150 502.181, 337.914 466.007, 321.032 425.460 C 306.292 390.058, 300.910 346.641, 306.557 308.704 C 308.040 298.743, 311.763 280.904, 312.515 280.152 C 312.743 279.924, 317.782 280.489, 323.714 281.406 C 378.304 289.850, 427.751 318.407, 462.218 361.398 C 477.014 379.853, 491.349 403.137, 500.083 422.904 L 504.239 432.308 500.183 445.404 C 497.952 452.607, 495.648 460.413, 495.063 462.750 C 494.479 465.087, 493.501 468.913, 492.891 471.250 L 491.783 475.500 485.968 458.654 C 476.122 430.125, 459.730 399.441, 443.684 379.500 C 429.086 361.359, 406.977 342.395, 386.925 330.816 C 369.580 320.801, 334.798 308.092, 332.943 311.092 C 331.484 313.453, 330.728 331.335, 331.300 349.960 C 331.742 364.339, 332.443 371.229, 334.424 380.659 C 340.974 411.841, 354.113 439.712, 373.715 464 C 388.270 482.035, 411.790 502.267, 432.500 514.567 C 442.055 520.242, 458.999 528.334, 459.752 527.582 C 460.046 527.288, 459.564 526.770, 458.681 526.431 C 456.097 525.440, 431.618 498.717, 419.839 484.030 L 409 470.514 409 455.618 L 409 440.721 403.316 432.110 C 385.976 405.841, 380.815 397.561, 381.613 397.292 C 382.101 397.128, 385.169 395.219, 388.432 393.050 C 391.694 390.881, 394.685 389.306, 395.079 389.549 C 395.473 389.792, 399.163 395.281, 403.279 401.746 C 407.395 408.211, 414.191 418.847, 418.381 425.382 L 426 437.263 426 451.433 L 426 465.602 435.677 477.551 C 447.212 491.795, 474.542 519.401, 488.500 530.908 L 498.500 539.152 499.134 525.826 C 502.705 450.701, 538.531 375.636, 592.500 330.200 C 612.421 313.428, 638.233 298.943, 663 290.637 C 676.153 286.227, 694.740 281.878, 706.153 280.542 L 711.805 279.880 713.866 288.690 C 725.431 338.140, 719.811 391.218, 698.248 436.199 C 680.786 472.626, 655.859 502.109, 621.500 526.976 C 610.677 534.809, 590.810 546.074, 579.684 550.685 C 571.357 554.137, 569.715 555.305, 560.985 563.985 C 545.265 579.614, 534.044 598.485, 528.985 617.797 C 526.093 628.841, 525.002 643.405, 525.001 670.994 L 525 695.488 556.815 663.685 L 588.629 631.882 587.688 627.191 C 585.182 614.696, 595.148 603, 608.303 603 C 626.335 603, 635.648 624.081, 623.653 637.743 C 618.349 643.784, 608.760 646.632, 602.500 644.027 C 600.790 643.315, 595.028 648.652, 562.750 680.842 L 525 718.490 525 756.489 L 525 794.488 556.898 762.602 C 588.367 731.145, 588.783 730.675, 587.773 727.779 C 586.321 723.615, 587.592 716.214, 590.519 711.792 C 598.340 699.973, 614.097 698.872, 623.859 709.463 C 632.439 718.771, 630.315 733.576, 619.335 741 C 616.129 743.168, 614.531 743.501, 607.315 743.509 L 598.992 743.518 561.996 780.504 L 525 817.490 525 869.245 L 525 921 531.750 920.989 C 541.354 920.974, 563.941 918.446, 580.781 915.501 C 635.418 905.947, 688.840 884.422, 736.323 852.829 C 822.900 795.225, 883.462 709.683, 908.902 609.067 C 921.570 558.967, 924.199 505.155, 916.503 453.500 C 906.614 387.124, 879.511 322.749, 838.613 268.500 C 826.633 252.609, 819.262 244.095, 804.108 228.646 C 736.354 159.570, 652.604 118, 558 106.488 C 542.042 104.546, 496.526 103.704, 481 105.063 M 506.394 212.678 C 476.313 235.283, 453.767 262.650, 437.337 296.500 L 431.027 309.500 434.384 312.500 C 452.778 328.935, 451.908 328.311, 452.951 325.811 C 453.481 324.540, 455.310 320.125, 457.014 316 C 463.827 299.513, 473.567 283.519, 486.656 267.325 C 494.433 257.703, 510.319 242, 512.276 242 C 514.205 242, 536.135 264.974, 543.140 274.335 C 554.490 289.499, 565.010 308.899, 571.327 326.312 C 571.887 327.853, 573.143 327.106, 579.742 321.309 C 584.009 317.561, 588.755 313.588, 590.290 312.481 L 593.079 310.467 590.138 303.334 C 580.292 279.458, 560.121 250.762, 539.168 230.823 C 529.649 221.764, 513.905 209, 512.250 209 C 511.721 209, 509.085 210.655, 506.394 212.678 M 528.617 298.811 C 527.776 300.172, 528.098 380, 528.944 380 C 529.380 380, 532.546 375.738, 535.981 370.528 C 539.416 365.319, 542.851 360.539, 543.614 359.906 C 544.740 358.971, 545 353.055, 545 328.378 L 545 298 537.059 298 C 532.691 298, 528.893 298.365, 528.617 298.811 M 687.500 310.719 C 671.368 314.651, 643.148 326.728, 629.099 335.712 C 597.327 356.031, 571.332 386.170, 552.522 424.500 C 535.229 459.737, 527.642 488.424, 525.412 527 C 524.706 539.198, 524.735 539.464, 526.594 538.016 C 545.005 523.682, 570.119 499.403, 585.434 481.135 C 599.976 463.789, 599.407 465.112, 598.636 450.433 C 598.175 441.655, 598.327 437.250, 599.145 435.705 C 600.835 432.511, 627.121 391.729, 628.430 390.269 C 629.286 389.314, 630.876 389.930, 635.517 393.016 C 638.808 395.203, 641.887 397.124, 642.361 397.284 C 642.835 397.443, 636.872 407.348, 629.111 419.294 L 615 441.014 615 455.758 L 615 470.502 604.684 483.501 C 593.352 497.780, 566.547 527, 564.780 527 C 564.168 527, 563.940 527.273, 564.274 527.607 C 565.432 528.765, 589.729 516.121, 601.583 508.192 C 646 478.480, 675.627 437.639, 687.962 389.116 C 692.426 371.555, 694.310 347.503, 692.866 326.500 C 691.958 313.285, 691.405 309.908, 690.183 310.116 C 689.807 310.180, 688.600 310.451, 687.500 310.719 M 504 356.022 L 504 396.044 508.096 404.192 L 512.193 412.339 516.096 404.431 L 520 396.522 520 356.261 L 520 316 512 316 L 504 316 504 356.022 M 479 346.020 L 479 357.121 486.750 368.520 C 491.012 374.789, 494.846 379.936, 495.269 379.959 C 495.692 379.982, 495.917 369.988, 495.769 357.750 L 495.500 335.500 487.250 335.210 L 479 334.919 479 346.020 M 375.500 422.092 C 372.200 424.250, 369.622 426.492, 369.772 427.073 C 370.331 429.250, 385.323 452, 386.198 452 C 387.169 452, 399 444.187, 399 443.546 C 399 442.487, 383.300 418.612, 382.469 418.407 C 381.936 418.275, 378.800 419.933, 375.500 422.092 M 634.260 428.750 C 623.678 445.145, 624.006 443.251, 630.934 447.955 C 634.210 450.180, 637.308 452, 637.819 452 C 638.544 452, 653.536 429.867, 654.786 426.950 C 655.060 426.311, 642.982 418, 641.779 418 C 641.459 418, 638.075 422.837, 634.260 428.750 M 424.061 673.505 L 424.122 703.500 428.255 706.500 C 434.707 711.184, 436.516 715.101, 436.414 724.170 L 436.327 731.839 467.664 763.164 L 499 794.488 499 756.489 L 499 718.490 461.500 681 L 424 643.510 424.061 673.505" fill="url(#teal-grad)" fill-rule="evenodd" />
  </g>
</svg>