<svg xmlns="http://www.w3.org/2000/svg" width="1024" height="1024" viewBox="0 0 1024 1024" version="1.1">
  <path d="M 481 105.063 C 379.026 113.989, 288.706 157.263, 217.200 231.454 C 135.479 316.244, 93.534 435.343, 105.011 550 C 111.014 609.969, 131.136 670.175, 162.692 722.586 C 183.361 756.914, 214.689 793.872, 246.500 821.454 C 312.975 879.091, 402.850 916.132, 487.250 920.675 L 499 921.307 499 869.409 L 499 817.510 461.810 780.310 L 424.621 743.111 418.469 743.685 C 410.966 744.386, 406.431 743.028, 402.087 738.780 C 395.423 732.266, 393.092 722.493, 396.347 714.718 C 397.722 711.434, 405.152 704, 407.060 704 C 407.780 704, 408.050 694.339, 407.911 673.500 L 407.708 643 401.854 643 L 396 643 396 624.059 C 396 613.641, 396.337 604.979, 396.750 604.809 C 397.163 604.639, 405.938 604.632, 416.250 604.793 L 435 605.085 435 618.299 L 435 631.512 467.065 663.506 L 499.130 695.500 498.682 662.500 C 498.203 627.223, 497.825 623.981, 492.441 608.994 C 486.236 591.722, 477.710 578.657, 463.093 564.024 C 454.362 555.282, 452.691 554.082, 444.500 550.658 C 433.579 546.093, 415.683 535.984, 403.500 527.499 C 367.150 502.181, 337.914 466.007, 321.032 425.460 C 306.292 390.058, 300.910 346.641, 306.557 308.704 C 308.040 298.743, 311.763 280.904, 312.515 280.152 C 312.743 279.924, 317.782 280.489, 323.714 281.406 C 378.304 289.850, 427.751 318.407, 462.218 361.398 C 477.014 379.853, 491.349 403.137, 500.083 422.904 L 504.239 432.308 500.183 445.404 C 497.952 452.607, 495.648 460.413, 495.063 462.750 C 494.479 465.087, 493.501 468.913, 492.891 471.250 L 491.783 475.500 485.968 458.654 C 476.122 430.125, 459.730 399.441, 443.684 379.500 C 429.086 361.359, 406.977 342.395, 386.925 330.816 C 369.580 320.801, 334.798 308.092, 332.943 311.092 C 331.484 313.453, 330.728 331.335, 331.300 349.960 C 331.742 364.339, 332.443 371.229, 334.424 380.659 C 340.974 411.841, 354.113 439.712, 373.715 464 C 388.270 482.035, 411.790 502.267, 432.500 514.567 C 442.055 520.242, 458.999 528.334, 459.752 527.582 C 460.046 527.288, 459.564 526.770, 458.681 526.431 C 456.097 525.440, 431.618 498.717, 419.839 484.030 L 409 470.514 409 455.618 L 409 440.721 403.316 432.110 C 385.976 405.841, 380.815 397.561, 381.613 397.292 C 382.101 397.128, 385.169 395.219, 388.432 393.050 C 391.694 390.881, 394.685 389.306, 395.079 389.549 C 395.473 389.792, 399.163 395.281, 403.279 401.746 C 407.395 408.211, 414.191 418.847, 418.381 425.382 L 426 437.263 426 451.433 L 426 465.602 435.677 477.551 C 447.212 491.795, 474.542 519.401, 488.500 530.908 L 498.500 539.152 499.134 525.826 C 502.705 450.701, 538.531 375.636, 592.500 330.200 C 612.421 313.428, 638.233 298.943, 663 290.637 C 676.153 286.227, 694.740 281.878, 706.153 280.542 L 711.805 279.880 713.866 288.690 C 725.431 338.140, 719.811 391.218, 698.248 436.199 C 680.786 472.626, 655.859 502.109, 621.500 526.976 C 610.677 534.809, 590.810 546.074, 579.684 550.685 C 571.357 554.137, 569.715 555.305, 560.985 563.985 C 545.265 579.614, 534.044 598.485, 528.985 617.797 C 526.093 628.841, 525.002 643.405, 525.001 670.994 L 525 695.488 556.815 663.685 L 588.629 631.882 587.688 627.191 C 585.182 614.696, 595.148 603, 608.303 603 C 626.335 603, 635.648 624.081, 623.653 637.743 C 618.349 643.784, 608.760 646.632, 602.500 644.027 C 600.790 643.315, 595.028 648.652, 562.750 680.842 L 525 718.490 525 756.489 L 525 794.488 556.898 762.602 C 588.367 731.145, 588.783 730.675, 587.773 727.779 C 586.321 723.615, 587.592 716.214, 590.519 711.792 C 598.340 699.973, 614.097 698.872, 623.859 709.463 C 632.439 718.771, 630.315 733.576, 619.335 741 C 616.129 743.168, 614.531 743.501, 607.315 743.509 L 598.992 743.518 561.996 780.504 L 525 817.490 525 869.245 L 525 921 531.750 920.989 C 541.354 920.974, 563.941 918.446, 580.781 915.501 C 635.418 905.947, 688.840 884.422, 736.323 852.829 C 822.900 795.225, 883.462 709.683, 908.902 609.067 C 921.570 558.967, 924.199 505.155, 916.503 453.500 C 906.614 387.124, 879.511 322.749, 838.613 268.500 C 826.633 252.609, 819.262 244.095, 804.108 228.646 C 736.354 159.570, 652.604 118, 558 106.488 C 542.042 104.546, 496.526 103.704, 481 105.063 M 505.273 152.814 C 469.176 179.940 442.120 212.780 422.404 253.400 L 414.832 269.000 418.861 272.600 C 440.934 292.322 439.890 291.573 441.141 288.573 C 441.777 287.048 443.972 281.750 446.017 276.800 C 454.192 257.016 465.880 237.823 481.587 218.390 C 490.920 206.844 509.983 188.000 512.331 188.000 C 514.646 188.000 540.962 215.569 549.368 226.802 C 562.988 244.999 575.612 268.279 583.192 289.174 C 583.864 291.024 585.372 290.127 593.290 283.171 C 598.411 278.673 604.106 273.906 605.948 272.577 L 609.295 270.160 605.766 261.601 C 593.950 232.950 569.745 198.514 544.602 174.588 C 533.179 163.717 514.286 148.400 512.300 148.400 C 511.665 148.400 508.502 150.386 505.273 152.814 M M 531.940 256.173 C 530.931 257.806 531.318 353.600 532.333 353.600 C 532.856 353.600 536.655 348.486 540.777 342.234 C 544.899 335.983 549.021 330.247 549.937 329.487 C 551.288 328.365 551.600 321.266 551.600 291.654 L 551.600 255.200 542.071 255.200 C 536.829 255.200 532.272 255.638 531.940 256.173 M M 722.600 270.463 C 703.242 275.181 669.378 289.674 652.519 300.454 C 614.392 324.837 583.198 361.004 560.626 407.000 C 539.875 449.284 530.770 483.709 528.094 530.000 C 527.247 544.638 527.282 544.957 529.513 543.219 C 551.606 526.018 581.743 496.884 600.121 474.962 C 617.571 454.147 616.888 455.734 615.963 438.120 C 615.410 427.586 615.592 422.300 616.574 420.446 C 618.602 416.613 650.145 367.675 651.716 365.923 C 652.743 364.777 654.651 365.516 660.220 369.219 C 664.170 371.844 667.864 374.149 668.433 374.341 C 669.002 374.532 661.846 386.418 652.533 400.753 L 635.600 426.817 635.600 444.510 L 635.600 462.202 623.221 477.801 C 609.622 494.936 577.456 530.000 575.336 530.000 C 574.602 530.000 574.328 530.328 574.729 530.728 C 576.118 532.118 605.275 516.945 619.500 507.430 C 672.800 471.776 708.352 422.767 723.154 364.539 C 728.511 343.466 730.772 314.604 729.039 289.400 C 727.950 273.542 727.286 269.490 725.820 269.739 C 725.368 269.816 723.920 270.141 722.600 270.463 M M 502.400 324.826 L 502.400 372.853 507.315 382.630 L 512.232 392.407 516.915 382.917 L 521.600 373.426 521.600 325.113 L 521.600 276.800 512.000 276.800 L 502.400 276.800 502.400 324.826 M M 472.400 312.824 L 472.400 326.145 481.700 339.824 C 486.814 347.347 491.415 353.523 491.923 353.551 C 492.430 353.578 492.700 341.586 492.523 326.900 L 492.200 300.200 482.300 299.852 L 472.400 299.503 472.400 312.824 M M 348.200 404.110 C 344.240 406.700 341.146 409.390 341.326 410.088 C 341.997 412.700 359.988 440.000 361.038 440.000 C 362.203 440.000 376.400 430.624 376.400 429.855 C 376.400 428.584 357.560 399.934 356.563 399.688 C 355.923 399.530 352.160 401.520 348.200 404.110 M M 658.712 412.100 C 646.014 431.774 646.407 429.501 654.721 435.146 C 658.652 437.816 662.370 440.000 662.983 440.000 C 663.853 440.000 681.843 413.440 683.343 409.940 C 683.672 409.173 669.178 399.200 667.735 399.200 C 667.351 399.200 663.290 405.004 658.712 412.100 M M 406.473 705.806 L 406.546 741.800 411.506 745.400 C 419.248 751.021 421.419 755.721 421.297 766.604 L 421.192 775.807 458.797 813.397 L 496.400 850.986 496.400 805.387 L 496.400 759.788 451.400 714.800 L 406.400 669.812 406.473 705.806" fill="#2dd4bf" fill-rule="evenodd" />
</svg>